<?xml version="1.0" encoding="UTF-8" standalone="no"?>
<!-- Created with Inkscape (http://www.inkscape.org/) -->

<svg
   xmlns:dc="http://purl.org/dc/elements/1.1/"
   xmlns:cc="http://creativecommons.org/ns#"
   xmlns:rdf="http://www.w3.org/1999/02/22-rdf-syntax-ns#"
   xmlns:svg="http://www.w3.org/2000/svg"
   xmlns="http://www.w3.org/2000/svg"
   xmlns:sodipodi="http://sodipodi.sourceforge.net/DTD/sodipodi-0.dtd"
   xmlns:inkscape="http://www.inkscape.org/namespaces/inkscape"
   width="175.89545mm"
   height="13.126239mm"
   viewBox="0 0 175.89545 13.126239"
   version="1.1"
   id="svg8"
   inkscape:version="0.92.2 5c3e80d, 2017-08-06"
   sodipodi:docname="pghk.svg">
  <defs
     id="defs2" />
  <sodipodi:namedview
     id="base"
     pagecolor="#ffffff"
     bordercolor="#666666"
     borderopacity="1.0"
     inkscape:pageopacity="0.0"
     inkscape:pageshadow="2"
     inkscape:zoom="0.35"
     inkscape:cx="-277.56191"
     inkscape:cy="-99.221333"
     inkscape:document-units="mm"
     inkscape:current-layer="layer1"
     showgrid="false"
     inkscape:window-width="1440"
     inkscape:window-height="855"
     inkscape:window-x="335"
     inkscape:window-y="196"
     inkscape:window-maximized="0" />
  <metadata
     id="metadata5">
    <rdf:RDF>
      <cc:Work
         rdf:about="">
        <dc:format>image/svg+xml</dc:format>
        <dc:type
           rdf:resource="http://purl.org/dc/dcmitype/StillImage" />
        <dc:title></dc:title>
      </cc:Work>
    </rdf:RDF>
  </metadata>
  <g
     inkscape:label="Layer 1"
     inkscape:groupmode="layer"
     id="layer1"
     transform="translate(-40.932302,-109.45478)">
    <g
       aria-label="Paul Hendrick"
       style="font-style:normal;font-weight:normal;font-size:10.58333302px;line-height:1.25;font-family:sans-serif;letter-spacing:0px;word-spacing:0px;fill:#000000;fill-opacity:1;stroke:none;stroke-width:0.26458332"
       id="text12">
      <path
         d="m 45.236191,119.66112 3.721806,0.0353 c 0.511528,0 0.811389,-0.12347 1.181806,-0.49389 l 2.134305,-2.09902 c 0.370417,-0.37042 0.493889,-0.67028 0.493889,-1.19945 v -1.78153 c 0,-0.52916 -0.123472,-0.82902 -0.493889,-1.19944 l -2.099028,-2.09903 c -0.370416,-0.37042 -0.670277,-0.49389 -1.181805,-0.49389 l -7.373056,-0.0176 c -0.511528,0 -0.687917,0.17639 -0.687917,0.70556 v 9.91305 c 0,0.52917 0.176389,0.70556 0.687917,0.70556 l 2.928056,-0.0176 c 0.511527,0 0.687916,-0.17639 0.687916,-0.70555 z m 0,-5.37986 h 2.469445 l 0.599722,0.635 v 0.33514 l -0.546805,0.56445 h -2.522362 z"
         style="font-style:normal;font-variant:normal;font-weight:800;font-stretch:normal;font-size:17.63888931px;font-family:'Mashine Rounded';-inkscape-font-specification:'Mashine Rounded, Ultra-Bold';font-variant-ligatures:normal;font-variant-caps:normal;font-variant-numeric:normal;font-feature-settings:normal;text-align:start;writing-mode:lr-tb;text-anchor:start;stroke-width:0.26458332"
         id="path52" />
      <path
         d="m 67.454026,114.9339 c 0,-0.52916 -0.123472,-0.82903 -0.47625,-1.19944 l -2.910417,-3.06917 c -0.370417,-0.38805 -0.670278,-0.52917 -1.199444,-0.52917 h -3.245556 c -0.529167,0 -0.829028,0.12348 -1.181806,0.49389 l -2.980972,3.13973 c -0.352778,0.37041 -0.47625,0.67027 -0.47625,1.1818 l -0.01764,5.99722 c 0,0.51153 0.176389,0.68792 0.705556,0.68792 h 2.839861 c 0.529167,0 0.687917,-0.17639 0.687917,-0.72319 l -0.01764,-1.19945 h 4.039305 l -0.03528,1.23472 c -0.01764,0.52917 0.15875,0.68792 0.670277,0.68792 l 2.910417,-0.0176 c 0.511528,0 0.687917,-0.17639 0.687917,-0.70555 z m -4.180417,0.65264 -0.05292,0.49389 h -4.039305 v -0.56444 l 2.046111,-1.86973 z"
         style="font-style:normal;font-variant:normal;font-weight:800;font-stretch:normal;font-size:17.63888931px;font-family:'Mashine Rounded';-inkscape-font-specification:'Mashine Rounded, Ultra-Bold';font-variant-ligatures:normal;font-variant-caps:normal;font-variant-numeric:normal;font-feature-settings:normal;text-align:start;writing-mode:lr-tb;text-anchor:start;stroke-width:0.26458332"
         id="path54" />
      <path
         d="m 77.970111,116.8389 -0.829027,0.84667 h -1.446389 l -0.864306,-0.88195 0.01764,-5.80319 c 0,-0.51153 -0.176389,-0.68792 -0.705556,-0.68792 h -2.963333 c -0.529167,0 -0.705556,0.17639 -0.705556,0.68792 l 0.01764,6.89681 c 0,0.51152 0.123472,0.81138 0.47625,1.16416 l 2.187223,2.20486 c 0.352777,0.35278 0.652638,0.47625 1.181805,0.47625 h 4.074584 c 0.529166,0 0.829027,-0.12347 1.199444,-0.49389 l 2.187222,-2.2225 c 0.370417,-0.37041 0.493889,-0.67027 0.493889,-1.1818 l 0.01764,-6.84389 c 0,-0.51153 -0.176389,-0.68792 -0.705555,-0.68792 h -2.963334 c -0.529167,0 -0.705555,0.17639 -0.705555,0.68792 z"
         style="font-style:normal;font-variant:normal;font-weight:800;font-stretch:normal;font-size:17.63888931px;font-family:'Mashine Rounded';-inkscape-font-specification:'Mashine Rounded, Ultra-Bold';font-variant-ligatures:normal;font-variant-caps:normal;font-variant-numeric:normal;font-feature-settings:normal;text-align:start;writing-mode:lr-tb;text-anchor:start;stroke-width:0.26458332"
         id="path56" />
      <path
         d="m 89.885456,117.49154 0.01764,-6.49111 c 0,-0.51153 -0.176389,-0.68792 -0.705556,-0.68792 h -2.945694 c -0.529167,0 -0.705556,0.17639 -0.705556,0.70556 v 9.89542 c 0,0.52916 0.176389,0.70555 0.705556,0.70555 h 8.554861 c 0.529167,0 0.705556,-0.17639 0.705556,-0.70555 v -2.73403 c 0,-0.52917 -0.176389,-0.70556 -0.687917,-0.70556 z"
         style="font-style:normal;font-variant:normal;font-weight:800;font-stretch:normal;font-size:17.63888931px;font-family:'Mashine Rounded';-inkscape-font-specification:'Mashine Rounded, Ultra-Bold';font-variant-ligatures:normal;font-variant-caps:normal;font-variant-numeric:normal;font-feature-settings:normal;text-align:start;writing-mode:lr-tb;text-anchor:start;stroke-width:0.26458332"
         id="path58" />
      <path
         d="m 116.71366,111.01807 c 0,-0.52917 -0.17639,-0.70556 -0.70556,-0.70556 h -2.94569 c -0.52917,0 -0.70556,0.17639 -0.70556,0.68792 l 0.0353,2.89278 h -4.10986 l 0.0176,-2.89278 c 0,-0.51153 -0.17639,-0.68792 -0.70556,-0.68792 h -2.94569 c -0.52917,0 -0.70556,0.17639 -0.70556,0.70556 v 9.91305 c 0,0.52917 0.17639,0.70556 0.70556,0.70556 h 2.94569 c 0.52917,0 0.70556,-0.17639 0.70556,-0.68792 l -0.0176,-2.94569 h 4.10986 l -0.0353,2.94569 c 0,0.51153 0.17639,0.68792 0.70556,0.68792 h 2.94569 c 0.52917,0 0.70556,-0.17639 0.70556,-0.70556 z"
         style="font-style:normal;font-variant:normal;font-weight:800;font-stretch:normal;font-size:17.63888931px;font-family:'Mashine Rounded';-inkscape-font-specification:'Mashine Rounded, Ultra-Bold';font-variant-ligatures:normal;font-variant-caps:normal;font-variant-numeric:normal;font-feature-settings:normal;text-align:start;writing-mode:lr-tb;text-anchor:start;stroke-width:0.26458332"
         id="path60" />
      <path
         d="m 119.9628,120.91349 c 0,0.52916 0.17639,0.70555 0.70555,0.70555 h 8.60778 c 0.52917,0 0.70556,-0.17639 0.70556,-0.70555 v -1.69334 c 0,-0.52916 -0.17639,-0.70555 -0.68792,-0.70555 l -5.36222,0.0176 v -0.91723 l 4.58611,0.0353 c 0.51153,0 0.68792,-0.17639 0.68792,-0.70555 v -1.9932 c 0,-0.52917 -0.17639,-0.70555 -0.68792,-0.70555 l -4.58611,0.0176 v -0.84666 l 5.29166,0.0353 c 0.51153,0 0.68792,-0.17639 0.68792,-0.70556 v -1.71097 c 0,-0.52917 -0.17639,-0.70556 -0.70555,-0.70556 h -8.53723 c -0.52916,0 -0.70555,0.17639 -0.70555,0.70556 z"
         style="font-style:normal;font-variant:normal;font-weight:800;font-stretch:normal;font-size:17.63888931px;font-family:'Mashine Rounded';-inkscape-font-specification:'Mashine Rounded, Ultra-Bold';font-variant-ligatures:normal;font-variant-caps:normal;font-variant-numeric:normal;font-feature-settings:normal;text-align:start;writing-mode:lr-tb;text-anchor:start;stroke-width:0.26458332"
         id="path62" />
      <path
         d="m 141.8929,115.62182 -4.49792,-4.78014 c -0.37042,-0.38806 -0.67028,-0.52917 -1.19944,-0.52917 h -2.50473 c -0.52916,0 -0.70555,0.17639 -0.70555,0.70556 v 9.91305 c 0,0.52917 0.17639,0.70556 0.70555,0.70556 h 2.55764 c 0.52917,0 0.70556,-0.17639 0.70556,-0.68792 l -0.0176,-4.28625 5.53861,5.62681 c 0.37042,0.37042 0.61736,0.38805 1.00542,0.0529 l 1.85208,-1.5875 c 0.38806,-0.33514 0.51153,-0.61737 0.51153,-1.14653 v -8.59014 c 0,-0.52917 -0.17639,-0.70556 -0.70556,-0.70556 h -2.57528 c -0.52916,0 -0.70555,0.17639 -0.70555,0.68792 z"
         style="font-style:normal;font-variant:normal;font-weight:800;font-stretch:normal;font-size:17.63888931px;font-family:'Mashine Rounded';-inkscape-font-specification:'Mashine Rounded, Ultra-Bold';font-variant-ligatures:normal;font-variant-caps:normal;font-variant-numeric:normal;font-feature-settings:normal;text-align:start;writing-mode:lr-tb;text-anchor:start;stroke-width:0.26458332"
         id="path64" />
      <path
         d="m 158.36872,121.61904 c 0.52917,0 0.82903,-0.12347 1.18181,-0.47625 l 2.16958,-2.15194 c 0.35278,-0.35278 0.47625,-0.65264 0.47625,-1.18181 v -3.65125 c 0,-0.52917 -0.12347,-0.82903 -0.49389,-1.19944 l -2.1343,-2.13431 c -0.37042,-0.37042 -0.67028,-0.49389 -1.19945,-0.49389 h -8.55486 c -0.52917,0 -0.70556,0.17639 -0.70556,0.70556 v 9.87778 c 0,0.52916 0.17639,0.70555 0.70556,0.70555 z m -4.95653,-7.26722 h 3.4925 l 0.58209,0.59972 v 2.08139 l -0.54681,0.56444 h -3.52778 z"
         style="font-style:normal;font-variant:normal;font-weight:800;font-stretch:normal;font-size:17.63888931px;font-family:'Mashine Rounded';-inkscape-font-specification:'Mashine Rounded, Ultra-Bold';font-variant-ligatures:normal;font-variant-caps:normal;font-variant-numeric:normal;font-feature-settings:normal;text-align:start;writing-mode:lr-tb;text-anchor:start;stroke-width:0.26458332"
         id="path66" />
      <path
         d="m 169.20507,119.09668 h 2.46944 l 2.62819,2.98097 c 0.35278,0.4057 0.59973,0.44097 1.02306,0.12347 l 1.99319,-1.51694 c 0.44098,-0.33514 0.45862,-0.56444 0.10584,-0.93486 l -1.6757,-1.74625 c 0.0176,0.0176 0.15875,-0.10583 0.52917,-0.49389 l 0.84667,-0.89958 c 0.37041,-0.38806 0.49389,-0.70556 0.49389,-1.23473 v -1.78152 c 0,-0.52917 -0.12348,-0.82903 -0.51153,-1.19945 l -1.60514,-1.56986 c -0.37042,-0.37042 -0.67028,-0.49389 -1.19945,-0.49389 h -8.5725 c -0.52916,0 -0.70555,0.17639 -0.70555,0.70556 v 9.89541 c 0,0.52917 0.17639,0.70556 0.68792,0.70556 l 2.80458,-0.0176 c 0.51153,0 0.68792,-0.17639 0.68792,-0.70555 z m -0.0706,-5.09764 3.84528,0.0176 0.35278,0.33514 v 0.61736 l -0.42334,0.45861 h -3.70416 z"
         style="font-style:normal;font-variant:normal;font-weight:800;font-stretch:normal;font-size:17.63888931px;font-family:'Mashine Rounded';-inkscape-font-specification:'Mashine Rounded, Ultra-Bold';font-variant-ligatures:normal;font-variant-caps:normal;font-variant-numeric:normal;font-feature-settings:normal;text-align:start;writing-mode:lr-tb;text-anchor:start;stroke-width:0.26458332"
         id="path68" />
      <path
         d="m 180.56203,120.93112 c 0,0.52917 0.17639,0.70556 0.70556,0.70556 h 2.92805 c 0.52917,0 0.70556,-0.17639 0.70556,-0.70556 v -9.91305 c 0,-0.52917 -0.17639,-0.70556 -0.70556,-0.70556 h -2.92805 c -0.52917,0 -0.70556,0.17639 -0.70556,0.70556 z"
         style="font-style:normal;font-variant:normal;font-weight:800;font-stretch:normal;font-size:17.63888931px;font-family:'Mashine Rounded';-inkscape-font-specification:'Mashine Rounded, Ultra-Bold';font-variant-ligatures:normal;font-variant-caps:normal;font-variant-numeric:normal;font-feature-settings:normal;text-align:start;writing-mode:lr-tb;text-anchor:start;stroke-width:0.26458332"
         id="path70" />
      <path
         d="m 199.18236,110.70057 c -0.37041,-0.37042 -0.67028,-0.49389 -1.19944,-0.49389 h -6.26181 c -0.52916,0 -0.82903,0.12347 -1.19944,0.49389 l -2.27542,2.27542 c -0.37042,0.37041 -0.49389,0.67027 -0.49389,1.19944 v 3.61597 c 0,0.52917 0.12347,0.82903 0.47625,1.18181 l 2.3107,2.29305 c 0.35277,0.35278 0.65264,0.47625 1.1818,0.47625 h 6.24417 c 0.52917,0 0.82903,-0.12347 1.19944,-0.49389 l 0.98778,-1.00541 c 0.37042,-0.37042 0.37042,-0.61736 0,-0.98778 l -2.16958,-2.13431 c -0.37042,-0.37041 -0.61736,-0.37041 -0.98778,0 l -0.59972,0.59973 h -3.36903 l -0.74083,-0.74084 v -1.95791 l 0.75847,-0.79375 h 3.31611 l 0.61736,0.635 c 0.37042,0.38805 0.61736,0.38805 0.98778,0.0176 l 2.20486,-2.16959 c 0.38806,-0.37041 0.38806,-0.61736 0.0176,-0.98778 z"
         style="font-style:normal;font-variant:normal;font-weight:800;font-stretch:normal;font-size:17.63888931px;font-family:'Mashine Rounded';-inkscape-font-specification:'Mashine Rounded, Ultra-Bold';font-variant-ligatures:normal;font-variant-caps:normal;font-variant-numeric:normal;font-feature-settings:normal;text-align:start;writing-mode:lr-tb;text-anchor:start;stroke-width:0.26458332"
         id="path72" />
      <path
         d="m 213.14547,115.95696 3.35139,-3.21028 c 0.37041,-0.35278 0.37041,-0.59972 -0.0176,-0.97014 l -2.08139,-2.04611 c -0.38806,-0.37042 -0.635,-0.37042 -1.00542,0.0176 l -4.0393,4.16278 h -1.85209 l 0.0176,-2.91042 c 0,-0.51153 -0.17639,-0.68792 -0.70555,-0.68792 h -2.9457 c -0.52917,0 -0.70555,0.17639 -0.70555,0.70556 v 9.91305 c 0,0.52917 0.17638,0.70556 0.70555,0.70556 h 2.9457 c 0.52916,0 0.70555,-0.17639 0.70555,-0.68792 l -0.0176,-2.94569 h 1.6757 l 4.21569,4.21569 c 0.37042,0.37042 0.61736,0.37042 0.97014,0.0176 l 2.20486,-2.2225 c 0.35278,-0.35278 0.35278,-0.59972 -0.0353,-0.9525 z"
         style="font-style:normal;font-variant:normal;font-weight:800;font-stretch:normal;font-size:17.63888931px;font-family:'Mashine Rounded';-inkscape-font-specification:'Mashine Rounded, Ultra-Bold';font-variant-ligatures:normal;font-variant-caps:normal;font-variant-numeric:normal;font-feature-settings:normal;text-align:start;writing-mode:lr-tb;text-anchor:start;stroke-width:0.26458332"
         id="path74" />
    </g>
  </g>
</svg>
