<?xml version="1.0" standalone="no"?>
<!DOCTYPE svg PUBLIC "-//W3C//DTD SVG 20010904//EN"
 "http://www.w3.org/TR/2001/REC-SVG-20010904/DTD/svg10.dtd">
<svg version="1.0" xmlns="http://www.w3.org/2000/svg"
 width="700.000000pt" height="700.000000pt" viewBox="0 0 700.000000 700.000000"
 preserveAspectRatio="xMidYMid meet">
<metadata>
Created by potrace 1.11, written by Peter Selinger 2001-2013
</metadata>
<g transform="translate(0.000000,700.000000) scale(0.100000,-0.100000)"
fill="#000000" stroke="none">
<path d="M3377 6734 c-1 -1 -53 -5 -115 -8 -61 -4 -118 -8 -125 -11 -6 -2 -39
-6 -72 -9 -88 -9 -165 -23 -336 -62 -346 -78 -727 -241 -1029 -439 -304 -200
-547 -419 -762 -685 -33 -41 -68 -85 -78 -96 -57 -68 -200 -297 -278 -444
-132 -251 -249 -580 -298 -835 -2 -11 -6 -31 -9 -45 -5 -25 -8 -40 -25 -155
-32 -208 -35 -627 -6 -855 13 -96 18 -131 31 -190 3 -14 7 -34 9 -45 57 -300
191 -653 359 -945 82 -145 232 -363 296 -431 10 -11 37 -43 58 -70 65 -82 343
-350 453 -435 188 -145 438 -302 606 -379 30 -14 80 -37 112 -51 173 -80 513
-187 692 -218 19 -3 46 -8 60 -11 74 -14 257 -36 354 -42 387 -23 732 11 1091
107 106 28 299 91 340 110 11 5 61 26 110 46 157 66 344 167 505 274 212 141
348 253 528 435 428 433 715 952 851 1537 11 47 23 101 26 120 3 18 7 44 10
58 28 148 39 300 40 510 0 203 -10 423 -19 439 -2 3 -7 29 -10 56 -7 64 -12
89 -38 205 -11 52 -24 111 -28 130 -24 111 -112 358 -181 510 -251 558 -658
1037 -1164 1371 -156 103 -479 279 -513 279 -4 0 -20 7 -37 16 -34 18 -68 31
-210 80 -257 89 -559 151 -825 170 -88 6 -368 12 -373 8z m1027 -1619 c56 -12
136 -58 188 -109 29 -28 107 -109 173 -181 66 -71 131 -141 145 -155 14 -14
71 -75 127 -135 55 -61 126 -137 157 -170 73 -78 119 -146 142 -215 17 -50 19
-89 19 -445 0 -524 15 -480 -275 -786 -138 -145 -309 -327 -323 -343 -10 -12
-64 -67 -120 -124 -105 -106 -179 -154 -257 -167 -38 -6 -225 -6 -782 0 l-367
4 -3 -242 c-3 -271 -8 -290 -78 -332 -34 -19 -50 -20 -537 -20 -491 0 -502 0
-530 21 -15 11 -37 38 -48 60 -20 38 -20 62 -21 1609 0 1188 3 1583 12 1623
14 63 42 97 93 110 40 11 2235 8 2285 -3z"/>
<path d="M3234 3921 c-7 -8 -4 -461 4 -462 9 0 638 0 678 0 25 1 43 15 108 88
76 85 77 88 75 137 -3 47 -7 54 -88 145 l-85 95 -344 1 c-189 0 -346 -2 -348
-4z"/>
</g>
</svg>
